<svg width="32" height="32" viewBox="0 0 32 32" fill="none" xmlns="http://www.w3.org/2000/svg">
<path fill-rule="evenodd" clip-rule="evenodd" d="M15.4565 12.2242C14.5819 12.2242 13.2192 11.2055 11.8032 11.2055C9.92054 11.2055 8.19787 12.3562 7.22721 14.0442C5.27521 17.4335 6.72454 22.4415 8.62854 25.1962C9.56321 26.5375 10.6645 28.0469 12.1259 27.9989C13.5272 27.9389 14.0539 27.0882 15.7552 27.0882C17.4445 27.0882 17.9232 27.9989 19.4085 27.9629C20.9179 27.9389 21.8765 26.5975 22.7979 25.2442C23.8645 23.6869 24.3072 22.1775 24.3312 22.0935C24.2952 22.0815 21.3965 20.9682 21.3605 17.6135C21.3365 14.8109 23.6485 13.4695 23.7565 13.4095C22.4392 11.4815 20.4152 11.2655 19.7085 11.2175C17.8632 11.0735 16.3192 12.2242 15.4565 12.2242V12.2242Z" stroke="white" stroke-width="1.5" stroke-linecap="round" stroke-linejoin="round"/>
<path d="M18.201 3.93992C19.3596 3.50856 20.1175 4.14456 19.8938 5.36047C19.6701 6.57639 18.5495 7.91177 17.3909 8.34313C16.2323 8.77449 15.4744 8.13849 15.6981 6.92257C15.9218 5.70666 17.0424 4.37128 18.201 3.93992" stroke="white" stroke-width="1.49996" stroke-linecap="round" stroke-linejoin="round"/>
</svg>
