<svg width="191" height="45" viewBox="0 0 191 45" fill="none" xmlns="http://www.w3.org/2000/svg">
<path d="M56.7412 40.2284C55.6136 40.2284 54.6433 40.1687 53.8301 40.0495C53.0278 39.9411 52.3068 39.7405 51.6671 39.4478C51.0275 39.155 50.3878 38.743 49.7481 38.2118L51.7159 34.8453C53.1362 35.691 54.5565 36.1138 55.9768 36.1138C56.9092 36.1138 57.6031 35.8157 58.0585 35.2194C58.5138 34.6231 58.7415 33.8479 58.7415 32.8938V30.5031C58.2753 32.1728 57.0339 33.0076 55.0173 33.0076C53.8572 33.0076 52.9194 32.7311 52.2038 32.1782C51.4882 31.6253 50.9678 30.8772 50.6426 29.9339C50.3173 28.9907 50.1547 27.939 50.1547 26.7789V18.0131C50.1547 16.7013 50.2956 15.5466 50.5775 14.5491C50.8594 13.5408 51.3527 12.7548 52.0574 12.191C52.7622 11.6272 53.7488 11.3453 55.0173 11.3453C56.0907 11.3453 56.9255 11.6164 57.5218 12.1585C58.129 12.7006 58.5355 13.4324 58.7415 14.354V11.6055H64.6775V32.5197C64.6775 35.2844 64.0378 37.2577 62.7585 38.4394C61.49 39.6321 59.4842 40.2284 56.7412 40.2284ZM57.3754 28.6166C58.2862 28.6166 58.7415 27.7926 58.7415 26.1446V17.8505C58.7415 17.406 58.6114 16.9506 58.3512 16.4844C58.1019 16.0182 57.7549 15.7851 57.3104 15.7851C56.7466 15.7851 56.3942 15.9965 56.2533 16.4194C56.1123 16.8314 56.0419 17.3084 56.0419 17.8505V26.1446C56.0419 26.7301 56.1123 27.2885 56.2533 27.8197C56.4051 28.351 56.7791 28.6166 57.3754 28.6166ZM72.7264 36.2602C71.3712 36.2602 70.3357 35.9458 69.6202 35.317C68.9154 34.6881 68.433 33.8262 68.1728 32.7311C67.9126 31.6361 67.7825 30.3947 67.7825 29.0069C67.7825 27.5216 67.9288 26.3073 68.2216 25.364C68.5143 24.4099 69.013 23.6293 69.7177 23.0221C70.4333 22.415 71.4145 21.9 72.6613 21.4772L76.2717 20.2412V17.7367C76.2717 16.4248 75.8435 15.7688 74.987 15.7688C74.2063 15.7688 73.816 16.3001 73.816 17.3626V18.8263H68.1565C68.1457 18.7395 68.1402 18.6311 68.1402 18.501C68.1402 18.3601 68.1402 18.2029 68.1402 18.0294C68.1402 15.6008 68.7094 13.8823 69.8479 12.874C70.9971 11.8549 72.8131 11.3453 75.296 11.3453C76.597 11.3453 77.7625 11.5784 78.7925 12.0446C79.8225 12.5 80.6356 13.1776 81.2319 14.0775C81.8391 14.9774 82.1427 16.0887 82.1427 17.4114V36H76.353V33.1052C76.0712 34.1243 75.6049 34.905 74.9544 35.4471C74.3039 35.9892 73.5612 36.2602 72.7264 36.2602ZM75.0195 31.7391C75.4965 31.7391 75.8218 31.5385 75.9953 31.1374C76.1687 30.7362 76.2555 30.3025 76.2555 29.8363V23.0384C75.4532 23.3637 74.8297 23.7757 74.3852 24.2744C73.9407 24.7623 73.7184 25.4833 73.7184 26.4374V29.5761C73.7184 31.0181 74.1521 31.7391 75.0195 31.7391ZM85.7192 36V11.6055H91.4113V14.4353C91.6715 13.4378 92.116 12.6735 92.7448 12.1422C93.3737 11.6109 94.2952 11.3453 95.5095 11.3453C96.4853 11.3453 97.3147 11.573 97.9978 12.0284C98.6917 12.4729 99.1796 13.0638 99.4615 13.801C99.906 12.9987 100.426 12.3916 101.023 11.9796C101.63 11.5567 102.492 11.3453 103.609 11.3453C104.964 11.3453 106.005 11.638 106.731 12.2235C107.468 12.7981 107.978 13.6004 108.26 14.6304C108.552 15.6496 108.699 16.8314 108.699 18.1758V36H102.893V18.0782C102.893 16.5061 102.492 15.7201 101.689 15.7201C101.267 15.7201 100.941 15.8664 100.714 16.1592C100.486 16.441 100.329 16.7934 100.242 17.2162C100.155 17.6391 100.112 18.0619 100.112 18.4848V36H94.3061V18.0782C94.3061 17.5686 94.241 17.059 94.1109 16.5495C93.9917 16.0399 93.6773 15.7851 93.1677 15.7851C92.734 15.7851 92.3979 15.9423 92.1594 16.2567C91.9208 16.5711 91.7582 16.9615 91.6715 17.4277C91.5847 17.883 91.5414 18.333 91.5414 18.7775V36H85.7192ZM119.155 36.2602C117.42 36.2602 116.038 35.9349 115.008 35.2844C113.978 34.6339 113.24 33.6961 112.796 32.4709C112.351 31.2458 112.129 29.7713 112.129 28.0474V18.2408C112.129 15.9748 112.78 14.2618 114.081 13.1017C115.382 11.9308 117.171 11.3453 119.447 11.3453C124.131 11.3453 126.473 13.6438 126.473 18.2408V20.0135C126.473 22.1602 126.451 23.6022 126.408 24.3394H117.951V29.0557C117.951 29.4894 117.978 29.9176 118.032 30.3405C118.087 30.7525 118.206 31.094 118.39 31.365C118.585 31.6361 118.894 31.7716 119.317 31.7716C119.924 31.7716 120.304 31.5114 120.456 30.991C120.607 30.4597 120.683 29.7713 120.683 28.9256V26.5837H126.473V27.9661C126.473 29.7875 126.245 31.3163 125.79 32.5522C125.345 33.7774 124.586 34.7044 123.513 35.3332C122.451 35.9512 120.998 36.2602 119.155 36.2602ZM117.919 21.4446H120.683V18.1595C120.683 17.2813 120.575 16.6525 120.358 16.273C120.141 15.8827 119.816 15.6875 119.382 15.6875C118.916 15.6875 118.553 15.8718 118.293 16.2405C118.043 16.6091 117.919 17.2488 117.919 18.1595V21.4446ZM129.919 36V7.37714H135.839V36H129.919ZM143.953 36.2602C142.598 36.2602 141.562 35.9458 140.847 35.317C140.142 34.6881 139.66 33.8262 139.399 32.7311C139.139 31.6361 139.009 30.3947 139.009 29.0069C139.009 27.5216 139.156 26.3073 139.448 25.364C139.741 24.4099 140.24 23.6293 140.944 23.0221C141.66 22.415 142.641 21.9 143.888 21.4772L147.498 20.2412V17.7367C147.498 16.4248 147.07 15.7688 146.214 15.7688C145.433 15.7688 145.043 16.3001 145.043 17.3626V18.8263H139.383C139.372 18.7395 139.367 18.6311 139.367 18.501C139.367 18.3601 139.367 18.2029 139.367 18.0294C139.367 15.6008 139.936 13.8823 141.075 12.874C142.224 11.8549 144.04 11.3453 146.523 11.3453C147.824 11.3453 148.989 11.5784 150.019 12.0446C151.049 12.5 151.862 13.1776 152.459 14.0775C153.066 14.9774 153.369 16.0887 153.369 17.4114V36H147.58V33.1052C147.298 34.1243 146.832 34.905 146.181 35.4471C145.531 35.9892 144.788 36.2602 143.953 36.2602ZM146.246 31.7391C146.723 31.7391 147.048 31.5385 147.222 31.1374C147.395 30.7362 147.482 30.3025 147.482 29.8363V23.0384C146.68 23.3637 146.056 23.7757 145.612 24.2744C145.167 24.7623 144.945 25.4833 144.945 26.4374V29.5761C144.945 31.0181 145.379 31.7391 146.246 31.7391ZM156.946 36V11.6055H162.768V14.7117C162.985 13.7793 163.386 12.9879 163.972 12.3374C164.568 11.676 165.392 11.3453 166.443 11.3453C168.135 11.3453 169.36 11.8657 170.119 12.9066C170.889 13.9474 171.274 15.3731 171.274 17.1837V36H165.533V17.7855C165.533 17.3084 165.435 16.8693 165.24 16.4681C165.045 16.0562 164.709 15.8502 164.232 15.8502C163.787 15.8502 163.457 16.0074 163.24 16.3218C163.034 16.6254 162.904 17.0102 162.849 17.4765C162.795 17.9318 162.768 18.3872 162.768 18.8425V36H156.946ZM179.697 36.2602C178.569 36.2602 177.675 36.0542 177.013 35.6422C176.352 35.2302 175.858 34.661 175.533 33.9346C175.208 33.2082 174.991 32.3571 174.883 31.3813C174.785 30.4055 174.736 29.3593 174.736 28.2426V17.6391C174.736 15.7634 175.067 14.2455 175.728 13.0854C176.401 11.9254 177.534 11.3453 179.127 11.3453C180.309 11.3453 181.214 11.6001 181.843 12.1097C182.483 12.6084 182.976 13.3077 183.323 14.2076V7.37714H189.243V36H183.323V33.4142C182.998 34.2924 182.564 34.9863 182.022 35.4958C181.491 36.0054 180.716 36.2602 179.697 36.2602ZM181.925 31.7066C182.478 31.7066 182.846 31.4843 183.03 31.0398C183.226 30.5953 183.323 29.7984 183.323 28.6491V18.3872C183.323 17.8126 183.236 17.2488 183.063 16.6958C182.9 16.132 182.532 15.8502 181.957 15.8502C181.328 15.8502 180.933 16.1158 180.77 16.647C180.607 17.1783 180.526 17.7583 180.526 18.3872V28.6491C180.526 30.6874 180.992 31.7066 181.925 31.7066Z" fill="#351B4F"/>
<path d="M38.5392 16.1648C37.7852 14.4405 36.7871 12.8337 35.5757 11.3935C33.7849 9.20097 31.5501 7.41256 29.0184 6.14596C26.4866 4.87936 23.7153 4.16329 20.8869 4.04489C18.0585 3.92648 15.237 4.40842 12.6083 5.45899C9.97953 6.50955 7.60308 8.10493 5.63532 10.1401C3.66756 12.1753 2.15312 14.6041 1.19167 17.2668C0.230218 19.9294 -0.156441 22.7655 0.057144 25.5883C0.270729 28.4111 1.07971 31.1567 2.43085 33.6444C3.78198 36.1321 5.64464 38.3054 7.89622 40.0213C9.34095 41.1443 10.9373 42.0572 12.6379 42.7329C15.0221 43.71 17.5738 44.2133 20.1505 44.2147C25.4691 44.2029 30.5662 42.0829 34.3243 38.3192C38.0824 34.5556 40.1949 29.4554 40.1988 24.1367C40.2027 21.3932 39.6376 18.6788 38.5392 16.1648ZM20.1356 8.11877C22.4495 8.11853 24.7354 8.62426 26.8332 9.60054C26.3217 9.82158 25.7838 9.97596 25.2329 10.0599C23.4201 10.3223 21.7408 11.1639 20.4456 12.4591C19.1504 13.7543 18.3088 15.4337 18.0463 17.2465C17.9312 18.2632 17.4688 19.209 16.7372 19.9243C16.0057 20.6397 15.0497 21.0808 14.0307 21.1732C12.2179 21.4356 10.5386 22.2772 9.2434 23.5724C7.94819 24.8676 7.10657 26.547 6.84416 28.3598C6.75532 29.3265 6.34287 30.2349 5.67356 30.938C4.51875 28.498 3.99998 25.8054 4.16552 23.1109C4.33107 20.4164 5.17554 17.8076 6.62037 15.5273C8.06519 13.2469 10.0634 11.3691 12.4291 10.0686C14.7947 8.76806 17.4509 8.08712 20.1505 8.08914L20.1356 8.11877ZM7.8814 34.5091C8.05921 34.3461 8.23703 34.1979 8.41484 34.0201C9.7331 32.742 10.5793 31.0549 10.8153 29.234C10.911 28.2105 11.368 27.2544 12.1044 26.5372C12.8131 25.7995 13.7669 25.3463 14.7865 25.2629C16.5993 25.0004 18.2786 24.1588 19.5738 22.8636C20.869 21.5684 21.7106 19.8891 21.973 18.0763C22.0371 17.0057 22.4966 15.9971 23.2622 15.2461C23.9883 14.5228 24.9513 14.086 25.9738 14.0162C27.6392 13.7871 29.1924 13.0467 30.4191 11.8973C31.8159 13.0561 32.9994 14.4502 33.9161 16.0166C33.8598 16.0927 33.7952 16.1623 33.7235 16.2241C33.0162 16.9682 32.0636 17.4314 31.0415 17.528C29.2268 17.7859 27.5449 18.626 26.2489 19.922C24.9528 21.2181 24.1127 22.8999 23.8549 24.7146C23.7505 25.7347 23.2966 26.6873 22.5701 27.4111C21.8437 28.1348 20.8894 28.5851 19.8689 28.6857C18.0508 28.9462 16.3652 29.7861 15.0625 31.0808C13.7598 32.3755 12.9095 34.0559 12.6379 35.8723C12.5581 36.5965 12.3094 37.2919 11.9118 37.9024C10.3915 36.9997 9.0299 35.8534 7.8814 34.5091ZM20.1356 40.2287C18.632 40.2304 17.1357 40.0209 15.6903 39.6064C16.1847 38.6847 16.5062 37.6803 16.6387 36.6429C16.7425 35.625 17.1943 34.6742 17.9177 33.9508C18.6411 33.2273 19.592 32.7756 20.6098 32.6717C22.4253 32.4122 24.108 31.5719 25.4061 30.2765C26.7042 28.981 27.548 27.3001 27.8112 25.4851C27.9151 24.4673 28.3668 23.5165 29.0903 22.793C29.8137 22.0696 30.7645 21.6178 31.7824 21.514C33.1486 21.3363 34.4507 20.8276 35.5757 20.0322C36.2003 22.3999 36.2743 24.8793 35.792 27.2801C35.3097 29.6808 34.2838 31.9392 32.7931 33.882C31.3024 35.8247 29.3866 37.4002 27.1925 38.4875C24.9984 39.5748 22.5844 40.1451 20.1356 40.1547V40.2287Z" fill="#B096D4"/>
</svg>
