<svg width="202" height="117" viewBox="0 0 202 117" fill="none" xmlns="http://www.w3.org/2000/svg">
<path d="M11.8751 0L0 97.7468L155.861 117L192.971 91.0823L201.135 22.2152L173.674 19.2532L158.83 32.5823L146.955 15.5506L11.8751 0Z" fill="#9F77D6"/>
<path d="M32.847 82.3924C24.7977 81.4272 21.4643 75.1798 22.8469 63.6503L25.7617 39.3422C27.024 28.8162 32.2669 24.1062 41.4905 25.2123C45.291 25.668 48.1132 26.7861 49.9572 28.5666C51.8038 30.3258 52.936 32.714 53.3538 35.7312C53.7717 38.7485 53.7285 42.3602 53.2241 46.5663L42.207 45.2452L42.8061 40.2491C42.9521 39.0321 42.9029 37.9974 42.6585 37.1451C42.4381 36.274 41.8048 35.7757 40.7586 35.6503C39.4562 35.4941 38.539 35.8281 38.007 36.6523C37.4964 37.479 37.1783 38.4155 37.0529 39.4617L33.777 66.7802C33.5952 68.2962 33.6389 69.5576 33.908 70.5644C34.201 71.5525 34.924 72.1157 36.0769 72.2539C37.2726 72.3973 38.1189 72.0223 38.6159 71.129C39.1367 70.2168 39.4906 68.9814 39.6775 67.4228L40.6415 59.3842L37.631 59.0232L38.7985 49.2872L52.5699 50.9385L48.6334 83.7656L44.1177 83.2241L42.7645 78.2538C40.3803 81.5198 37.0745 82.8993 32.847 82.3924ZM54.2034 84.4336L66.4071 28.7199L85.5269 31.0127L84.1161 88.0205L73.4513 86.7417L73.7414 77.5501L66.9517 76.736L65.1565 85.747L54.2034 84.4336ZM68.8316 67.8326L73.9558 68.447L74.9269 39.4877L74.4145 39.4262L68.8316 67.8326ZM90.1986 88.7499L96.9577 32.3834L114.124 34.4419L114.743 69.3746L123.572 35.5748L140.898 37.6525L134.139 94.019L123.826 92.7823L128.696 52.1728L117.357 92.0066L107.237 90.793L105.253 49.3616L100.383 89.9711L90.1986 88.7499ZM141.759 94.9327L148.518 38.5662L171.064 41.2698L169.759 52.1588L158.677 50.83L157.36 61.8151L167.993 63.0901L166.722 73.6909L156.089 72.4158L154.541 85.3225L166.359 86.7396L165.042 97.7247L141.759 94.9327Z" fill="#F0ECF5"/>
</svg>
